<svg xmlns="http://www.w3.org/2000/svg" width="24" height="24" fill="none" viewBox="0 0 200 200"><path fill="url(#a)" d="M165.963 134.037c-5.467 5.467-14.332 5.467-19.799 0l-24.137-24.138c-5.468-5.467-5.468-14.331 0-19.799l24.137-24.137c5.467-5.467 14.332-5.467 19.799 0L190.101 90.1c5.467 5.468 5.467 14.332 0 19.799zm-112.127 0c-5.467 5.467-14.332 5.467-19.8 0L9.9 109.899c-5.468-5.467-5.468-14.331 0-19.799l24.137-24.137c5.467-5.467 14.332-5.467 19.799 0L77.973 90.1c5.468 5.468 5.468 14.332 0 19.799zM109.9 190.1c-5.468 5.468-14.332 5.468-19.8 0l-24.137-24.137c-5.467-5.467-5.467-14.332 0-19.799l24.138-24.137c5.467-5.468 14.331-5.468 19.799 0l24.137 24.137c5.467 5.467 5.467 14.332 0 19.799zm0-112.127c-5.468 5.468-14.332 5.468-19.8 0L65.964 53.836c-5.467-5.468-5.467-14.332 0-19.8L90.101 9.9c5.467-5.467 14.331-5.467 19.799 0l24.137 24.138c5.467 5.467 5.467 14.331 0 19.799z"></path><defs><linearGradient id="a" x1="154.166" x2="47.248" y1="35.943" y2="144.745" gradientUnits="userSpaceOnUse"><stop offset="0.051" stop-color="#FFB6E1"></stop><stop offset="1" stop-color="#FBE3EA"></stop></linearGradient></defs></svg>